<svg xmlns="http://www.w3.org/2000/svg" width="1265.87" height="811.713" viewBox="0 0 1265.87 811.713">
  <defs>
    <style>
      .cls-1 {
        fill: #0b8b29;
      }

      .cls-2 {
        fill: #f2f2f2;
      }

      .cls-3 {
        fill: #e6e6e6;
      }

      .cls-4 {
        fill: #ccc;
      }

      .cls-5 {
        opacity: 0.2;
        isolation: isolate;
      }

      .cls-6 {
        fill: #3f3d56;
      }

      .cls-7 {
        fill: #185daf;
      }

      .cls-8 {
        fill: #2f2e41;
      }

      .cls-9 {
        fill: #a0616a;
      }

      .cls-10 {
        fill: #ffb8b8;
      }
    </style>
  </defs>
  <g id="Group_26" data-name="Group 26" transform="translate(0 0)">
    <circle id="Ellipse_1" data-name="Ellipse 1" class="cls-1" cx="100.883" cy="100.883" r="100.883" transform="translate(242.957 70.424)"/>
    <path id="Path_21" data-name="Path 21" class="cls-2" d="M864.395,588.657H40.957L336.93,165.475,452.669,0l88.1,125.951Z" transform="translate(15.644 0)"/>
    <path id="Path_22" data-name="Path 22" class="cls-2" d="M693.6,115.96,393.956,544.366H993.235L693.6,115.96,393.956,544.366H993.235Z" transform="translate(150.473 44.291)"/>
    <path id="Path_23" data-name="Path 23" class="cls-3" d="M485.216,156.317,492.03,275.11,469.516,446.051s185.965,97.908,186.466,102.37-39.174,129.993-39.174,129.993l280.134,66.561Z" transform="translate(-16.904 -156.317)"/>
    <path id="Path_24" data-name="Path 24" class="cls-3" d="M752.779,272.277l48.854,114.948,86.617,173.881,51.274,26.214s-3.362,40.717-3.134,45.946,116.029,67.417,116.029,67.417Z" transform="translate(91.29 -112.026)"/>
    <path id="Path_25" data-name="Path 25" class="cls-4" d="M1406.488,583.041H143.382a1.382,1.382,0,0,1,0-2.764H1406.488a1.382,1.382,0,0,1,0,2.764Z" transform="translate(-142 5.616)"/>
    <circle id="Ellipse_2" data-name="Ellipse 2" class="cls-4" cx="108.119" cy="108.119" r="108.119" transform="translate(171.824 290.647)"/>
    <path id="Path_26" data-name="Path 26" class="cls-5" d="M294.376,392.614a108.128,108.128,0,0,0,180.159,114.43,108.129,108.129,0,1,1-180.159-114.43Z" transform="translate(-94.264 -66.062)"/>
    <path id="Path_27" data-name="Path 27" class="cls-6" d="M204.345,288.553h.3l5.345,306.535H198.7Z" transform="translate(75.895 110.214)"/>
    <circle id="Ellipse_3" data-name="Ellipse 3" class="cls-7" cx="92.918" cy="92.918" r="92.918" transform="translate(326.603 455.358)"/>
    <path id="Path_28" data-name="Path 28" class="cls-5" d="M402.433,508.148a92.925,92.925,0,0,0,154.828,98.342,92.926,92.926,0,1,1-154.829-98.342Z" transform="translate(-51.52 -21.934)"/>
    <path id="Path_29" data-name="Path 29" class="cls-6" d="M305.1,396.739h.256l4.6,263.438h-9.7Z" transform="translate(114.68 151.536)"/>
    <circle id="Ellipse_4" data-name="Ellipse 4" class="cls-7" cx="130.228" cy="130.228" r="130.228" transform="translate(415.702 147.814)"/>
    <path id="Path_30" data-name="Path 30" class="cls-5" d="M666.6,294.57a130.238,130.238,0,0,1-217,137.83,130.239,130.239,0,1,0,217-137.83Z" transform="translate(-24.511 -103.511)"/>
    <path id="Path_31" data-name="Path 31" class="cls-6" d="M396.662,201.2H396.3l-6.44,369.218h13.6Z" transform="translate(148.91 76.847)"/>
    <path id="Path_32" data-name="Path 32" class="cls-6" d="M688.065,276.868l17.682-14.142c-13.736-1.515-19.38,5.976-21.69,11.906-10.731-4.456-22.414,1.384-22.414,1.384l35.378,12.844a26.771,26.771,0,0,0-8.956-11.991Z" transform="translate(56.48 -115.749)"/>
    <path id="Path_33" data-name="Path 33" class="cls-6" d="M704.649,197.109l17.682-14.142c-13.736-1.515-19.38,5.976-21.69,11.906-10.731-4.456-22.414,1.384-22.414,1.384L713.605,209.1a26.772,26.772,0,0,0-8.956-11.991Z" transform="translate(62.814 -146.214)"/>
    <path id="Path_34" data-name="Path 34" class="cls-6" d="M796.777,281.062l17.682-14.142c-13.736-1.515-19.38,5.976-21.69,11.906-10.731-4.456-22.414,1.384-22.414,1.384l35.378,12.844A26.771,26.771,0,0,0,796.777,281.062Z" transform="translate(98.003 -114.147)"/>
    <path id="Path_35" data-name="Path 35" class="cls-6" d="M819.562,731.551s.677-14.177,14.546-12.529" transform="translate(116.798 58.56)"/>
    <path id="Path_36" data-name="Path 36" class="cls-6" d="M862.1,731.551s.677-14.177,14.546-12.529" transform="translate(133.045 58.56)"/>
    <path id="Path_37" data-name="Path 37" class="cls-6" d="M842.249,731.551s.677-14.177,14.546-12.529" transform="translate(125.463 58.56)"/>
    <path id="Path_38" data-name="Path 38" class="cls-6" d="M805.321,731.551s-.677-14.177-14.546-12.529" transform="translate(105.802 58.56)"/>
    <path id="Path_39" data-name="Path 39" class="cls-6" d="M847.858,732.26s-.677-14.177-14.546-12.529" transform="translate(122.05 58.831)"/>
    <rect id="Rectangle_3" data-name="Rectangle 3" class="cls-8" width="1.654" height="188.668" transform="matrix(0.835, -0.551, 0.551, 0.835, 725.577, 585.971)"/>
    <path id="Path_40" data-name="Path 40" class="cls-9" d="M480.962,573.879H491.1l4.824-39.118H480.959Z" transform="translate(183.704 204.254)"/>
    <path id="Path_41" data-name="Path 41" class="cls-8" d="M621.089,716.988h19.973a12.728,12.728,0,0,1,12.728,12.727v.414h-32.7Z" transform="translate(40.99 57.833)"/>
    <path id="Path_42" data-name="Path 42" class="cls-9" d="M433,566.2l9.53,3.469,17.914-35.109-14.066-5.119Z" transform="translate(165.386 202.223)"/>
    <path id="Path_43" data-name="Path 43" class="cls-8" d="M575.3,709.468,594.07,716.3h0a12.729,12.729,0,0,1,7.607,16.314l-.141.389-30.729-11.184Z" transform="translate(21.785 54.962)"/>
    <path id="Path_44" data-name="Path 44" class="cls-8" d="M637.787,526.138l21.508,6.618,17.372,28.953-6.618,33.916L666.74,625.4V757.76s-25.455,6.618-36.3,0l4.042-76.931-27.3,81.895-30.607-11.581,34.743-114.983a55.044,55.044,0,0,1,4.157-24.88A34.12,34.12,0,0,1,630.342,594.8V588.18l-6.618-42.188Z" transform="translate(23.987 -15.062)"/>
    <circle id="Ellipse_5" data-name="Ellipse 5" class="cls-9" cx="20.317" cy="20.317" r="20.317" transform="translate(657.759 467.101)"/>
    <path id="Path_45" data-name="Path 45" class="cls-8" d="M659.713,511.205a13.468,13.468,0,0,0-14.267,6.419c-.7-2.571-4.845-2.439-6.38-.261s-1.2,5.12-.7,7.737,1.061,5.461-.147,7.835a7.26,7.26,0,0,1-6.347,3.61,13.5,13.5,0,0,1-7.208-2.294,24.1,24.1,0,0,1,5.964-43.677c5.021-1.445,10.352-1.222,15.569-.931a37.049,37.049,0,0,1,12.472,2.183c3.907,1.653,7.38,4.942,8.1,9.123s-1.727,11.669-5.953,12.036" transform="translate(37.977 -29.084)"/>
    <path id="Path_46" data-name="Path 46" class="cls-8" d="M628.535,496.438a19.255,19.255,0,0,0,5.307-1.7,6.3,6.3,0,0,0,3.342-4.178,3.68,3.68,0,0,0-2.573-4.215,8.149,8.149,0,0,0-3.919.648,3.976,3.976,0,0,1-3.8-.368c-1.093-1.025-.831-2.877-1.766-4.042a3.5,3.5,0,0,0-3.918-.725,10.357,10.357,0,0,0-3.4,2.543L612.8,489.36c-.974.965-2.028,2.163-1.781,3.479a2.917,2.917,0,0,0,3.367,1.919,8.875,8.875,0,0,0,3.826-1.95,9.9,9.9,0,0,0-3.651,4.038,4.917,4.917,0,0,0,.539,5.107c1.788,2.061,5.178,1.778,7.78.75a19.368,19.368,0,0,0,8.582-6.679" transform="translate(37.131 -32.093)"/>
    <path id="Path_47" data-name="Path 47" class="cls-8" d="M628.287,491.93c-4.585-1.05-9.114-2.552-12.3-5.056s-4.772-6.177-2.964-9.265a9.415,9.415,0,0,0,.472,10.209,18.333,18.333,0,0,0,11.094,6.773,4.771,4.771,0,0,0,2.85-.008c.826-.368.853-1.45-.11-1.59" transform="translate(37.421 -33.598)"/>
    <path id="Path_48" data-name="Path 48" class="cls-9" d="M680.838,580.366a8.713,8.713,0,0,0-1.131.775l-39.164-12.216-2.2-9.72-15.1,1.407,2.227,17.586a6.618,6.618,0,0,0,5.526,5.7l46.094,7.329a8.683,8.683,0,1,0,3.754-10.865Z" transform="translate(41.811 -2.432)"/>
    <path id="Path_49" data-name="Path 49" class="cls-8" d="M622.523,538.871s3.538-10.111,14.177-9.191,4.849,41.453,4.849,41.453l-20.68,28.125Z" transform="translate(40.906 -13.732)"/>
    <path id="Path_50" data-name="Path 50" class="cls-7" d="M709.621,724.557l-7.4-15.829,11.432-5.342,7.4,15.829h0a6.309,6.309,0,1,1-11.432,5.342Z" transform="translate(71.98 52.638)"/>
    <circle id="Ellipse_6" data-name="Ellipse 6" class="cls-7" cx="7.765" cy="7.765" r="7.765" transform="translate(748.385 727.793)"/>
    <path id="Path_51" data-name="Path 51" class="cls-7" d="M734.237,726.846l-7.4-15.829,11.432-5.342,7.4,15.828a6.309,6.309,0,0,1-11.432,5.343Z" transform="translate(81.382 53.512)"/>
    <path id="Path_52" data-name="Path 52" class="cls-6" d="M689.194,704.085a16.52,16.52,0,0,1,17.958-14.9l52.011,4.836a6.983,6.983,0,0,1,6.3,7.59l-.55,5.918a20.106,20.106,0,0,1-21.856,18.138L704.1,722.042A16.519,16.519,0,0,1,689.194,704.085Z" transform="translate(66.976 47.187)"/>
    <path id="Path_53" data-name="Path 53" class="cls-6" d="M696.16,723.864l1.617-17.4,12.564,1.168-1.617,17.4a6.309,6.309,0,1,1-12.564-1.168Z" transform="translate(69.653 53.816)"/>
    <path id="Path_54" data-name="Path 54" class="cls-6" d="M722.541,726.317l1.617-17.4,12.564,1.168-1.617,17.4a6.309,6.309,0,1,1-12.564-1.168Z" transform="translate(79.73 54.752)"/>
    <path id="Path_55" data-name="Path 55" class="cls-7" d="M768.074,675.8a7.765,7.765,0,1,1,11.156,10.8l-14.18,14.643-11.156-10.8Z" transform="translate(91.715 41.198)"/>
    <path id="Path_56" data-name="Path 56" class="cls-6" d="M740.339,700.138l11.36-11.731a14.972,14.972,0,0,1,21.147-.339l2.944,2.851a17.852,17.852,0,0,1,.4,25.214l-9.36,9.665a5.606,5.606,0,0,1-7.918.127l-18.451-17.869a5.606,5.606,0,0,1-.127-7.918Z" transform="translate(85.937 45.182)"/>
    <path id="Path_57" data-name="Path 57" class="cls-6" d="M769.762,674.33a5.339,5.339,0,1,1,7.67,7.428l-15.869,16.386-7.67-7.428Z" transform="translate(91.715 40.92)"/>
    <path id="Path_58" data-name="Path 58" class="cls-6" d="M751.628,693.929l20.221,19.582a7.765,7.765,0,0,1-10.8,11.156l-20.221-19.583Z" transform="translate(86.723 49.026)"/>
    <ellipse id="Ellipse_7" data-name="Ellipse 7" class="cls-7" cx="3.276" cy="1.82" rx="3.276" ry="1.82" transform="translate(854.735 774.007) rotate(-45.918)"/>
    <rect id="Rectangle_4" data-name="Rectangle 4" class="cls-8" width="4.136" height="23.162" transform="translate(832.595 762.137) rotate(180)"/>
    <path id="Path_59" data-name="Path 59" class="cls-10" d="M778.245,493.059H766.38l-5.644-45.766h17.512Z" transform="translate(290.567 170.846)"/>
    <path id="Path_60" data-name="Path 60" class="cls-8" d="M928.17,649.3H889.911v-.484a14.892,14.892,0,0,1,14.89-14.891h23.369Z" transform="translate(143.668 26.107)"/>
    <path id="Path_61" data-name="Path 61" class="cls-10" d="M875.821,393.957l2.291,11.642L834.3,419.978,830.916,402.8Z" transform="translate(317.372 150.474)"/>
    <path id="Path_62" data-name="Path 62" class="cls-8" d="M1017.322,546.517l7.39,37.538-.475.093a14.892,14.892,0,0,1-17.488-11.734h0l-4.514-22.927Z" transform="translate(186.571 -7.278)"/>
    <path id="Path_63" data-name="Path 63" class="cls-8" d="M906.225,540.748S940.4,575.818,953.884,592s21.581,4.5,21.581,4.5l34.483-9.239,19.471-6.048s-3.6-17.085-4.5-16.186-53.687,5.781-53.687,5.781-13.755-16.572-14.654-27.362-24.279-23.38-24.279-23.38Z" transform="translate(149.899 -17.381)"/>
    <path id="Path_64" data-name="Path 64" class="cls-8" d="M917.385,534.381s-7.194,30.574-17.545,39.363-4.935,16.389-4.935,16.389l14.388,62.047,17.985-.9s-6.41-50.611-7.309-56.906,21.7-35.715,21.7-35.715Z" transform="translate(145.034 -11.914)"/>
    <circle id="Ellipse_8" data-name="Ellipse 8" class="cls-10" cx="15.287" cy="15.287" r="15.287" transform="translate(987.903 448.782)"/>
    <path id="Path_65" data-name="Path 65" class="cls-7" d="M895.979,536.149c2.7,0,10.791,15.287,10.791,15.287s17.984,5.4,20.682.9,9.891-11.69,16.186-14.388,3.6-5.4,0-8.093-15.287-9.892-26.077-22.481-27.876-15.287-29.675-15.287-6.295,17.985-6.295,17.985C878.894,515.466,893.281,536.149,895.979,536.149Z" transform="translate(140.362 -28.068)"/>
    <path id="Path_66" data-name="Path 66" class="cls-8" d="M866.08,491.049c3.123,1.455,6.76,9.078,11.146,5.76a10.947,10.947,0,0,1,1.178-.955,3.068,3.068,0,0,1,3.559,1.017c.891.993,1.415,2.266,2.269,3.29a3.234,3.234,0,0,0,3.505,1.282l2.095-4.549a15.366,15.366,0,0,0,1.245-3.377,10.4,10.4,0,0,0-2.882-8.688,30.755,30.755,0,0,0-7.627-5.585,20.669,20.669,0,0,0-6.056-2.713,7,7,0,0,0-6.245,1.43,17.487,17.487,0,0,1-1.836,1.891,16.188,16.188,0,0,1-3.744,1.266c-2.413.925-3.823,3.381-5.039,5.661a7.576,7.576,0,0,0-1.146,3.3C856.387,495.422,863.286,489.747,866.08,491.049Z" transform="translate(130.907 -34.093)"/>
    <path id="Path_67" data-name="Path 67" class="cls-8" d="M895.875,648.873c24.863-.886,64.3-.008,64.692,0l.551.011.261-.484c.061-.112,6.093-11.088,14.319-9.437l.353-1.763c-8.562-1.715-14.626,7.573-15.979,9.863-4.825-.1-40.928-.822-64.261.012-24.038.86-27.875-7.455-27.912-7.539l-1.666.678c.149.373,3.759,8.722,26.168,8.722Q894.066,648.937,895.875,648.873Z" transform="translate(134.624 27.279)"/>
    <rect id="Rectangle_5" data-name="Rectangle 5" class="cls-8" width="7.194" height="7.194" rx="2.412" transform="translate(1023.272 677.951)"/>
    <path id="Path_68" data-name="Path 68" class="cls-8" d="M788.683,490.574h.529a3.333,3.333,0,0,1,3.333,3.333v.529a3.333,3.333,0,0,1-3.333,3.333h-.529a3.333,3.333,0,0,1-3.333-3.333v-.529a3.332,3.332,0,0,1,3.333-3.333Z" transform="translate(299.968 187.377)"/>
    <path id="Path_69" data-name="Path 69" class="cls-10" d="M888.948,558.528a6.1,6.1,0,0,1,.93-.24l11.609-26.281-4.11-5.641,7.7-7.316,8.247,9.28a4.634,4.634,0,0,1,.461,5.543l-17.38,27.683a6.081,6.081,0,1,1-7.459-3.028Z" transform="translate(141.747 -17.769)"/>
    <path id="Path_70" data-name="Path 70" class="cls-7" d="M914.924,526.28c0,.9-10.791,13.488-13.846,12.285s-4.138-5.091-8.745-9.105-8.882-25.661-8.882-25.661S914.924,525.38,914.924,526.28Z" transform="translate(141.2 -23.595)"/>
  </g>
</svg>
